<svg xmlns="http://www.w3.org/2000/svg" viewBox="0 0 1200 630">
  <defs>
    <linearGradient id="bg" x1="0" y1="0" x2="1" y2="1">
      <stop offset="0" stop-color="#06080d"/>
      <stop offset="1" stop-color="#0d1117"/>
    </linearGradient>
    <filter id="g" x="-20%" y="-20%" width="140%" height="140%">
      <feGaussianBlur stdDeviation="3"/>
    </filter>
  </defs>
  <rect width="1200" height="630" fill="url(#bg)"/>
  <!-- Robot icon left -->
  <g transform="translate(80,135)" fill="none" stroke="#00d4ff" stroke-width="5" stroke-linecap="round" stroke-linejoin="round" filter="url(#g)">
    <line x1="180" y1="0" x2="180" y2="20"/>
    <circle cx="180" cy="35" r="14"/>
    <line x1="180" y1="49" x2="180" y2="80"/>
    <rect x="60" y="92" width="240" height="180" rx="40"/>
    <ellipse cx="130" cy="180" rx="36" ry="24"/>
    <ellipse cx="230" cy="180" rx="36" ry="24"/>
    <circle cx="130" cy="180" r="11"/><circle cx="230" cy="180" r="11"/>
    <line x1="80" y1="270" x2="280" y2="270"/>
    <rect x="100" y="300" width="160" height="60" rx="20"/>
    <circle cx="140" cy="330" r="9"/><circle cx="180" cy="330" r="6"/><circle cx="220" cy="330" r="9"/>
  </g>
  <!-- Wordmark right -->
  <g transform="translate(460,140)" fill="#e6edf3" font-family="Helvetica,Arial,sans-serif">
    <text x="0" y="80"  font-size="72" font-weight="800" fill="#00d4ff">LVL13.TECH</text>
    <text x="0" y="140" font-size="32" font-weight="600">AI &amp; Quantum Stock Tracker</text>
    <text x="0" y="220" font-size="28" fill="#7d8590">5 trading strategies. One universe.</text>
    <text x="0" y="258" font-size="28" fill="#7d8590">Watch them race.</text>
    <!-- chips -->
    <g font-size="14" font-weight="700" letter-spacing="1.2" fill="#06080d">
      <rect x="0"   y="320" width="100" height="34" rx="17" fill="#ec4899"/><text x="50"  y="343" text-anchor="middle">BOT13</text>
      <rect x="116" y="320" width="110" height="34" rx="17" fill="#a855f7"/><text x="171" y="343" text-anchor="middle">ORACLE</text>
      <rect x="242" y="320" width="110" height="34" rx="17" fill="#10b981"/><text x="297" y="343" text-anchor="middle">WIZARD</text>
      <rect x="368" y="320" width="140" height="34" rx="17" fill="#00d4ff"/><text x="438" y="343" text-anchor="middle">EQUALIZER</text>
      <rect x="524" y="320" width="100" height="34" rx="17" fill="#ff8c00"/><text x="574" y="343" text-anchor="middle">TITAN</text>
    </g>
    <text x="0" y="430" font-size="22" fill="#7d8590">Daily Buy/Sell/Hold signals · Sector-filtered news · Auto reports</text>
  </g>
</svg>
